<svg width="250" height="80" viewBox="0 0 250 80" fill="none" xmlns="http://www.w3.org/2000/svg">
<rect width="250" height="80" rx="15" fill="white"/>
<path d="M46.2369 16C46.3486 16 46.4604 16 46.5784 16C46.8524 19.3851 45.5603 21.9144 43.9901 23.746C42.4493 25.565 40.3394 27.3292 36.927 27.0615C36.6993 23.7249 37.9935 21.3832 39.5617 19.5558C41.016 17.8527 43.6823 16.3372 46.2369 16Z" fill="black"/>
<path d="M56.5672 51.2333C56.5672 51.267 56.5672 51.2965 56.5672 51.3281C55.6082 54.2326 54.2403 56.7219 52.5709 59.032C51.047 61.1292 49.1795 63.9515 45.8451 63.9515C42.9638 63.9515 41.0499 62.0988 38.0969 62.0482C34.9732 61.9976 33.2554 63.5974 30.3994 64C30.0727 64 29.746 64 29.4256 64C27.3284 63.6964 25.6359 62.0355 24.4028 60.539C20.7669 56.1169 17.9573 50.4049 17.4346 43.0952C17.4346 42.3786 17.4346 41.664 17.4346 40.9474C17.6559 35.7159 20.1978 31.4625 23.5766 29.4011C25.3597 28.3051 27.8111 27.3713 30.5406 27.7886C31.7104 27.9699 32.9055 28.3704 33.9531 28.7667C34.9458 29.1482 36.1873 29.8247 37.3634 29.7889C38.1602 29.7657 38.9527 29.3505 39.7557 29.0575C42.108 28.2081 44.4139 27.2343 47.4533 27.6917C51.106 28.2439 53.6986 29.8669 55.3005 32.3709C52.2105 34.3375 49.7676 37.301 50.1849 42.3617C50.5559 46.9587 53.2285 49.6482 56.5672 51.2333Z" fill="black"/>
<path d="M83.16 28C82.904 28 82.7067 27.9307 82.568 27.792C82.4293 27.6533 82.36 27.456 82.36 27.2V17.52C82.36 17.264 82.4293 17.0667 82.568 16.928C82.7067 16.7893 82.904 16.72 83.16 16.72H86.248C88.0933 16.72 89.512 17.2053 90.504 18.176C91.5067 19.136 92.008 20.528 92.008 22.352C92.008 23.2587 91.88 24.064 91.624 24.768C91.368 25.472 90.9947 26.064 90.504 26.544C90.0133 27.0133 89.4107 27.376 88.696 27.632C87.992 27.8773 87.176 28 86.248 28H83.16ZM83.848 26.736H86.152C86.8773 26.736 87.5067 26.6453 88.04 26.464C88.5733 26.2827 89.016 26.0107 89.368 25.648C89.7307 25.2853 90.0027 24.832 90.184 24.288C90.3653 23.7333 90.456 23.088 90.456 22.352C90.456 20.8907 90.0933 19.7973 89.368 19.072C88.6533 18.3467 87.5813 17.984 86.152 17.984H83.848V26.736ZM97.4331 28.144C96.6651 28.144 95.9985 27.9787 95.4331 27.648C94.8678 27.3173 94.4305 26.848 94.1211 26.24C93.8118 25.632 93.6571 24.9173 93.6571 24.096C93.6571 23.4773 93.7425 22.9227 93.9131 22.432C94.0945 21.9307 94.3505 21.504 94.6811 21.152C95.0118 20.8 95.4065 20.5333 95.8651 20.352C96.3345 20.16 96.8571 20.064 97.4331 20.064C98.2011 20.064 98.8678 20.2293 99.4331 20.56C99.9985 20.8907 100.436 21.36 100.745 21.968C101.054 22.5653 101.209 23.2747 101.209 24.096C101.209 24.7147 101.118 25.2747 100.937 25.776C100.766 26.2773 100.516 26.704 100.185 27.056C99.8545 27.408 99.4545 27.68 98.9851 27.872C98.5265 28.0533 98.0091 28.144 97.4331 28.144ZM97.4331 26.992C97.9025 26.992 98.3078 26.88 98.6491 26.656C99.0011 26.432 99.2678 26.1067 99.4491 25.68C99.6411 25.2533 99.7371 24.7253 99.7371 24.096C99.7371 23.1573 99.5291 22.4427 99.1131 21.952C98.6971 21.4613 98.1371 21.216 97.4331 21.216C96.9745 21.216 96.5691 21.328 96.2171 21.552C95.8758 21.7653 95.6091 22.0853 95.4171 22.512C95.2251 22.9387 95.1291 23.4667 95.1291 24.096C95.1291 25.0347 95.3371 25.7547 95.7531 26.256C96.1798 26.7467 96.7398 26.992 97.4331 26.992ZM105.717 28.112C105.515 28.112 105.339 28.064 105.189 27.968C105.04 27.8613 104.923 27.6907 104.837 27.456L102.453 21.104C102.379 20.9013 102.357 20.7253 102.389 20.576C102.421 20.4267 102.496 20.3093 102.613 20.224C102.731 20.1387 102.885 20.096 103.077 20.096C103.259 20.096 103.403 20.1387 103.509 20.224C103.616 20.3093 103.707 20.464 103.781 20.688L105.957 26.832H105.573L107.813 20.656C107.888 20.464 107.984 20.3253 108.101 20.24C108.229 20.144 108.384 20.096 108.565 20.096C108.757 20.096 108.917 20.144 109.045 20.24C109.173 20.3253 109.264 20.464 109.317 20.656L111.525 26.832H111.157L113.365 20.656C113.44 20.4427 113.536 20.2987 113.653 20.224C113.771 20.1387 113.915 20.096 114.085 20.096C114.277 20.096 114.421 20.144 114.517 20.24C114.613 20.336 114.667 20.464 114.677 20.624C114.699 20.7733 114.677 20.9333 114.613 21.104L112.229 27.456C112.155 27.68 112.037 27.8453 111.877 27.952C111.728 28.0587 111.552 28.112 111.349 28.112C111.147 28.112 110.965 28.0587 110.805 27.952C110.656 27.8453 110.539 27.68 110.453 27.456L108.165 21.184H108.901L106.613 27.456C106.528 27.68 106.411 27.8453 106.261 27.952C106.112 28.0587 105.931 28.112 105.717 28.112ZM117.169 28.112C116.945 28.112 116.769 28.048 116.641 27.92C116.513 27.792 116.449 27.6053 116.449 27.36V20.832C116.449 20.5867 116.513 20.4053 116.641 20.288C116.769 20.16 116.945 20.096 117.169 20.096C117.393 20.096 117.564 20.16 117.681 20.288C117.809 20.4053 117.873 20.5867 117.873 20.832V22.144L117.697 21.904C117.921 21.296 118.284 20.8373 118.785 20.528C119.297 20.2187 119.879 20.064 120.529 20.064C121.159 20.064 121.676 20.176 122.081 20.4C122.487 20.624 122.791 20.9653 122.993 21.424C123.196 21.8827 123.297 22.464 123.297 23.168V27.36C123.297 27.6053 123.233 27.792 123.105 27.92C122.988 28.048 122.812 28.112 122.577 28.112C122.343 28.112 122.161 28.048 122.033 27.92C121.905 27.792 121.841 27.6053 121.841 27.36V23.248C121.841 22.5547 121.708 22.048 121.441 21.728C121.175 21.408 120.748 21.248 120.161 21.248C119.479 21.248 118.929 21.4613 118.513 21.888C118.108 22.304 117.905 22.8693 117.905 23.584V27.36C117.905 27.8613 117.66 28.112 117.169 28.112ZM128.054 28.144C127.254 28.144 126.646 27.9093 126.23 27.44C125.814 26.96 125.606 26.272 125.606 25.376V17.344C125.606 17.0987 125.67 16.9173 125.798 16.8C125.926 16.672 126.102 16.608 126.326 16.608C126.56 16.608 126.742 16.672 126.87 16.8C126.998 16.9173 127.062 17.0987 127.062 17.344V25.264C127.062 25.8187 127.174 26.2347 127.398 26.512C127.632 26.7787 127.963 26.912 128.39 26.912C128.486 26.912 128.571 26.912 128.646 26.912C128.72 26.9013 128.795 26.8907 128.87 26.88C128.987 26.8693 129.072 26.9013 129.126 26.976C129.179 27.0507 129.206 27.2 129.206 27.424C129.206 27.6267 129.158 27.7867 129.062 27.904C128.976 28.0107 128.832 28.08 128.63 28.112C128.534 28.1227 128.438 28.128 128.342 28.128C128.246 28.1387 128.15 28.144 128.054 28.144ZM133.652 28.144C132.884 28.144 132.217 27.9787 131.652 27.648C131.087 27.3173 130.649 26.848 130.34 26.24C130.031 25.632 129.876 24.9173 129.876 24.096C129.876 23.4773 129.961 22.9227 130.132 22.432C130.313 21.9307 130.569 21.504 130.9 21.152C131.231 20.8 131.625 20.5333 132.084 20.352C132.553 20.16 133.076 20.064 133.652 20.064C134.42 20.064 135.087 20.2293 135.652 20.56C136.217 20.8907 136.655 21.36 136.964 21.968C137.273 22.5653 137.428 23.2747 137.428 24.096C137.428 24.7147 137.337 25.2747 137.156 25.776C136.985 26.2773 136.735 26.704 136.404 27.056C136.073 27.408 135.673 27.68 135.204 27.872C134.745 28.0533 134.228 28.144 133.652 28.144ZM133.652 26.992C134.121 26.992 134.527 26.88 134.868 26.656C135.22 26.432 135.487 26.1067 135.668 25.68C135.86 25.2533 135.956 24.7253 135.956 24.096C135.956 23.1573 135.748 22.4427 135.332 21.952C134.916 21.4613 134.356 21.216 133.652 21.216C133.193 21.216 132.788 21.328 132.436 21.552C132.095 21.7653 131.828 22.0853 131.636 22.512C131.444 22.9387 131.348 23.4667 131.348 24.096C131.348 25.0347 131.556 25.7547 131.972 26.256C132.399 26.7467 132.959 26.992 133.652 26.992ZM141.773 28.144C141.24 28.144 140.754 28.0373 140.317 27.824C139.89 27.6107 139.554 27.3227 139.309 26.96C139.074 26.5973 138.957 26.192 138.957 25.744C138.957 25.168 139.101 24.7147 139.389 24.384C139.677 24.0533 140.162 23.8187 140.845 23.68C141.528 23.5307 142.445 23.456 143.597 23.456H144.349V24.384H143.629C142.808 24.384 142.157 24.4213 141.677 24.496C141.208 24.5707 140.877 24.704 140.685 24.896C140.493 25.0773 140.397 25.3333 140.397 25.664C140.397 26.08 140.541 26.4213 140.829 26.688C141.128 26.9547 141.533 27.088 142.045 27.088C142.45 27.088 142.808 26.992 143.117 26.8C143.426 26.5973 143.672 26.3307 143.853 26C144.034 25.6587 144.125 25.2693 144.125 24.832V22.992C144.125 22.3627 143.997 21.9093 143.741 21.632C143.485 21.344 143.053 21.2 142.445 21.2C142.093 21.2 141.73 21.248 141.357 21.344C140.984 21.44 140.594 21.5893 140.189 21.792C140.029 21.8667 139.89 21.8933 139.773 21.872C139.656 21.84 139.56 21.776 139.485 21.68C139.421 21.5733 139.384 21.4613 139.373 21.344C139.373 21.216 139.4 21.0933 139.453 20.976C139.517 20.8587 139.624 20.7733 139.773 20.72C140.242 20.4853 140.706 20.32 141.165 20.224C141.634 20.1173 142.072 20.064 142.477 20.064C143.17 20.064 143.741 20.176 144.189 20.4C144.637 20.6133 144.973 20.9493 145.197 21.408C145.421 21.856 145.533 22.432 145.533 23.136V27.36C145.533 27.6053 145.474 27.792 145.357 27.92C145.24 28.048 145.069 28.112 144.845 28.112C144.632 28.112 144.461 28.048 144.333 27.92C144.216 27.792 144.157 27.6053 144.157 27.36V26.224H144.301C144.216 26.6187 144.056 26.96 143.821 27.248C143.586 27.536 143.293 27.76 142.941 27.92C142.6 28.0693 142.21 28.144 141.773 28.144ZM150.8 28.144C150.118 28.144 149.515 27.984 148.992 27.664C148.48 27.3333 148.08 26.864 147.792 26.256C147.504 25.6373 147.36 24.9173 147.36 24.096C147.36 23.264 147.499 22.5493 147.776 21.952C148.064 21.344 148.464 20.88 148.976 20.56C149.499 20.2293 150.107 20.064 150.8 20.064C151.494 20.064 152.091 20.24 152.592 20.592C153.094 20.9333 153.43 21.392 153.6 21.968H153.424V17.344C153.424 17.0987 153.483 16.9173 153.6 16.8C153.728 16.672 153.91 16.608 154.144 16.608C154.379 16.608 154.56 16.672 154.688 16.8C154.816 16.9173 154.88 17.0987 154.88 17.344V27.36C154.88 27.6053 154.816 27.792 154.688 27.92C154.56 28.048 154.379 28.112 154.144 28.112C153.92 28.112 153.744 28.048 153.616 27.92C153.488 27.792 153.424 27.6053 153.424 27.36V25.904L153.6 26.192C153.44 26.7893 153.104 27.264 152.592 27.616C152.091 27.968 151.494 28.144 150.8 28.144ZM151.136 26.992C151.606 26.992 152.011 26.88 152.352 26.656C152.704 26.432 152.971 26.1067 153.152 25.68C153.344 25.2533 153.44 24.7253 153.44 24.096C153.44 23.1573 153.232 22.4427 152.816 21.952C152.4 21.4613 151.84 21.216 151.136 21.216C150.678 21.216 150.272 21.328 149.92 21.552C149.579 21.7653 149.312 22.0853 149.12 22.512C148.928 22.9387 148.832 23.4667 148.832 24.096C148.832 25.0347 149.04 25.7547 149.456 26.256C149.883 26.7467 150.443 26.992 151.136 26.992ZM164.699 28.144C163.931 28.144 163.264 27.9787 162.699 27.648C162.133 27.3173 161.696 26.848 161.387 26.24C161.077 25.632 160.923 24.9173 160.923 24.096C160.923 23.4773 161.008 22.9227 161.179 22.432C161.36 21.9307 161.616 21.504 161.947 21.152C162.277 20.8 162.672 20.5333 163.131 20.352C163.6 20.16 164.123 20.064 164.699 20.064C165.467 20.064 166.133 20.2293 166.699 20.56C167.264 20.8907 167.701 21.36 168.011 21.968C168.32 22.5653 168.475 23.2747 168.475 24.096C168.475 24.7147 168.384 25.2747 168.203 25.776C168.032 26.2773 167.781 26.704 167.451 27.056C167.12 27.408 166.72 27.68 166.251 27.872C165.792 28.0533 165.275 28.144 164.699 28.144ZM164.699 26.992C165.168 26.992 165.573 26.88 165.915 26.656C166.267 26.432 166.533 26.1067 166.715 25.68C166.907 25.2533 167.003 24.7253 167.003 24.096C167.003 23.1573 166.795 22.4427 166.379 21.952C165.963 21.4613 165.403 21.216 164.699 21.216C164.24 21.216 163.835 21.328 163.483 21.552C163.141 21.7653 162.875 22.0853 162.683 22.512C162.491 22.9387 162.395 23.4667 162.395 24.096C162.395 25.0347 162.603 25.7547 163.019 26.256C163.445 26.7467 164.005 26.992 164.699 26.992ZM171.06 28.112C170.836 28.112 170.66 28.048 170.532 27.92C170.404 27.792 170.34 27.6053 170.34 27.36V20.832C170.34 20.5867 170.404 20.4053 170.532 20.288C170.66 20.16 170.836 20.096 171.06 20.096C171.284 20.096 171.455 20.16 171.572 20.288C171.7 20.4053 171.764 20.5867 171.764 20.832V22.144L171.588 21.904C171.812 21.296 172.175 20.8373 172.676 20.528C173.188 20.2187 173.769 20.064 174.42 20.064C175.049 20.064 175.567 20.176 175.972 20.4C176.377 20.624 176.681 20.9653 176.884 21.424C177.087 21.8827 177.188 22.464 177.188 23.168V27.36C177.188 27.6053 177.124 27.792 176.996 27.92C176.879 28.048 176.703 28.112 176.468 28.112C176.233 28.112 176.052 28.048 175.924 27.92C175.796 27.792 175.732 27.6053 175.732 27.36V23.248C175.732 22.5547 175.599 22.048 175.332 21.728C175.065 21.408 174.639 21.248 174.052 21.248C173.369 21.248 172.82 21.4613 172.404 21.888C171.999 22.304 171.796 22.8693 171.796 23.584V27.36C171.796 27.8613 171.551 28.112 171.06 28.112ZM186.9 28.144C186.271 28.144 185.743 28.032 185.316 27.808C184.9 27.584 184.585 27.2587 184.372 26.832C184.169 26.4053 184.068 25.8827 184.068 25.264V21.328H183.044C182.852 21.328 182.703 21.28 182.596 21.184C182.489 21.0773 182.436 20.9387 182.436 20.768C182.436 20.5867 182.489 20.448 182.596 20.352C182.703 20.256 182.852 20.208 183.044 20.208H184.068V18.464C184.068 18.2187 184.132 18.0373 184.26 17.92C184.388 17.792 184.569 17.728 184.804 17.728C185.039 17.728 185.215 17.792 185.332 17.92C185.46 18.0373 185.524 18.2187 185.524 18.464V20.208H187.46C187.663 20.208 187.817 20.256 187.924 20.352C188.031 20.448 188.084 20.5867 188.084 20.768C188.084 20.9387 188.031 21.0773 187.924 21.184C187.817 21.28 187.663 21.328 187.46 21.328H185.524V25.136C185.524 25.7227 185.647 26.1653 185.892 26.464C186.137 26.7627 186.543 26.912 187.108 26.912C187.311 26.912 187.481 26.896 187.62 26.864C187.759 26.8213 187.881 26.8 187.988 26.8C188.084 26.7893 188.164 26.8213 188.228 26.896C188.303 26.9707 188.34 27.1093 188.34 27.312C188.34 27.4613 188.313 27.6 188.26 27.728C188.217 27.8453 188.127 27.9253 187.988 27.968C187.86 28.0107 187.689 28.048 187.476 28.08C187.263 28.1227 187.071 28.144 186.9 28.144ZM190.247 28.112C190.023 28.112 189.847 28.048 189.719 27.92C189.591 27.792 189.527 27.6053 189.527 27.36V17.344C189.527 17.0987 189.591 16.9173 189.719 16.8C189.847 16.672 190.023 16.608 190.247 16.608C190.482 16.608 190.663 16.672 190.791 16.8C190.919 16.9173 190.983 17.0987 190.983 17.344V21.904H190.775C190.999 21.296 191.362 20.8373 191.863 20.528C192.375 20.2187 192.957 20.064 193.607 20.064C194.237 20.064 194.754 20.1813 195.159 20.416C195.565 20.64 195.869 20.9813 196.071 21.44C196.274 21.8987 196.375 22.4747 196.375 23.168V27.36C196.375 27.6053 196.311 27.792 196.183 27.92C196.066 28.048 195.89 28.112 195.655 28.112C195.421 28.112 195.239 28.048 195.111 27.92C194.983 27.792 194.919 27.6053 194.919 27.36V23.248C194.919 22.5547 194.786 22.048 194.519 21.728C194.253 21.408 193.826 21.248 193.239 21.248C192.557 21.248 192.007 21.4613 191.591 21.888C191.186 22.304 190.983 22.8693 190.983 23.584V27.36C190.983 27.8613 190.738 28.112 190.247 28.112ZM202.284 28.144C201.441 28.144 200.716 27.984 200.108 27.664C199.51 27.3333 199.046 26.8693 198.716 26.272C198.385 25.664 198.22 24.9493 198.22 24.128C198.22 23.3173 198.38 22.608 198.7 22C199.03 21.392 199.478 20.9173 200.044 20.576C200.62 20.2347 201.276 20.064 202.012 20.064C202.534 20.064 203.004 20.1547 203.42 20.336C203.846 20.5067 204.209 20.7573 204.508 21.088C204.806 21.4187 205.03 21.824 205.18 22.304C205.34 22.7733 205.42 23.3067 205.42 23.904C205.42 24.0747 205.366 24.208 205.26 24.304C205.164 24.3893 205.02 24.432 204.828 24.432H199.356V23.504H204.46L204.188 23.728C204.188 23.1733 204.102 22.704 203.932 22.32C203.772 21.9253 203.532 21.6267 203.212 21.424C202.902 21.2213 202.513 21.12 202.044 21.12C201.532 21.12 201.094 21.2427 200.732 21.488C200.369 21.7227 200.092 22.0587 199.9 22.496C199.708 22.9227 199.612 23.4187 199.612 23.984V24.08C199.612 25.04 199.841 25.7653 200.3 26.256C200.758 26.7467 201.42 26.992 202.284 26.992C202.625 26.992 202.972 26.9493 203.324 26.864C203.686 26.7787 204.033 26.624 204.364 26.4C204.524 26.304 204.668 26.2613 204.796 26.272C204.934 26.272 205.046 26.3147 205.132 26.4C205.217 26.4747 205.27 26.5707 205.292 26.688C205.313 26.7947 205.297 26.912 205.244 27.04C205.19 27.168 205.089 27.28 204.94 27.376C204.588 27.6213 204.166 27.8133 203.676 27.952C203.196 28.08 202.732 28.144 202.284 28.144Z" fill="black"/>
<path d="M73.4 61.224C73.016 61.224 72.7067 61.1387 72.472 60.968C72.2587 60.7973 72.1307 60.5627 72.088 60.264C72.0453 59.9653 72.1093 59.6347 72.28 59.272L81.016 39.496C81.208 39.048 81.4533 38.728 81.752 38.536C82.0507 38.3227 82.3813 38.216 82.744 38.216C83.1067 38.216 83.4267 38.3227 83.704 38.536C84.0027 38.728 84.2587 39.048 84.472 39.496L93.208 59.272C93.3787 59.6347 93.4427 59.976 93.4 60.296C93.3787 60.5947 93.2613 60.8293 93.048 61C92.8347 61.1493 92.536 61.224 92.152 61.224C91.7253 61.224 91.384 61.1173 91.128 60.904C90.872 60.6693 90.648 60.3387 90.456 59.912L88.184 54.6L89.56 55.368H75.864L77.24 54.6L74.968 59.912C74.776 60.3813 74.5627 60.7227 74.328 60.936C74.0933 61.128 73.784 61.224 73.4 61.224ZM82.68 41.8L77.688 53.608L76.92 52.936H88.504L87.768 53.608L82.744 41.8H82.68ZM98.2448 66.984C97.7968 66.984 97.4448 66.856 97.1888 66.6C96.9328 66.344 96.8048 65.9813 96.8048 65.512V46.664C96.8048 46.1733 96.9328 45.8107 97.1888 45.576C97.4448 45.32 97.7968 45.192 98.2448 45.192C98.7141 45.192 99.0661 45.32 99.3008 45.576C99.5568 45.8107 99.6848 46.1733 99.6848 46.664V49.576L99.3328 49C99.6741 47.8267 100.346 46.888 101.349 46.184C102.351 45.48 103.557 45.128 104.965 45.128C106.351 45.128 107.557 45.4587 108.581 46.12C109.605 46.76 110.405 47.688 110.981 48.904C111.557 50.0987 111.845 51.528 111.845 53.192C111.845 54.8347 111.557 56.2747 110.981 57.512C110.426 58.728 109.626 59.6667 108.581 60.328C107.557 60.968 106.351 61.288 104.965 61.288C103.578 61.288 102.383 60.936 101.381 60.232C100.378 59.528 99.7061 58.6 99.3648 57.448H99.7168V65.512C99.7168 65.9813 99.5888 66.344 99.3328 66.6C99.0768 66.856 98.7141 66.984 98.2448 66.984ZM104.293 58.984C105.21 58.984 106.01 58.76 106.693 58.312C107.397 57.864 107.941 57.2133 108.325 56.36C108.709 55.5067 108.901 54.4507 108.901 53.192C108.901 51.3147 108.485 49.8853 107.653 48.904C106.821 47.9227 105.701 47.432 104.293 47.432C103.354 47.432 102.533 47.656 101.829 48.104C101.146 48.5307 100.613 49.1707 100.229 50.024C99.8661 50.8773 99.6848 51.9333 99.6848 53.192C99.6848 55.0693 100.101 56.5093 100.933 57.512C101.765 58.4933 102.885 58.984 104.293 58.984ZM117.026 66.984C116.578 66.984 116.226 66.856 115.97 66.6C115.714 66.344 115.586 65.9813 115.586 65.512V46.664C115.586 46.1733 115.714 45.8107 115.97 45.576C116.226 45.32 116.578 45.192 117.026 45.192C117.495 45.192 117.847 45.32 118.082 45.576C118.338 45.8107 118.466 46.1733 118.466 46.664V49.576L118.114 49C118.455 47.8267 119.127 46.888 120.13 46.184C121.133 45.48 122.338 45.128 123.746 45.128C125.133 45.128 126.338 45.4587 127.362 46.12C128.386 46.76 129.186 47.688 129.762 48.904C130.338 50.0987 130.626 51.528 130.626 53.192C130.626 54.8347 130.338 56.2747 129.762 57.512C129.207 58.728 128.407 59.6667 127.362 60.328C126.338 60.968 125.133 61.288 123.746 61.288C122.359 61.288 121.165 60.936 120.162 60.232C119.159 59.528 118.487 58.6 118.146 57.448H118.498V65.512C118.498 65.9813 118.37 66.344 118.114 66.6C117.858 66.856 117.495 66.984 117.026 66.984ZM123.074 58.984C123.991 58.984 124.791 58.76 125.474 58.312C126.178 57.864 126.722 57.2133 127.106 56.36C127.49 55.5067 127.682 54.4507 127.682 53.192C127.682 51.3147 127.266 49.8853 126.434 48.904C125.602 47.9227 124.482 47.432 123.074 47.432C122.135 47.432 121.314 47.656 120.61 48.104C119.927 48.5307 119.394 49.1707 119.01 50.024C118.647 50.8773 118.466 51.9333 118.466 53.192C118.466 55.0693 118.882 56.5093 119.714 57.512C120.546 58.4933 121.666 58.984 123.074 58.984ZM150.487 61.288C149.484 61.288 148.514 61.2027 147.575 61.032C146.636 60.8827 145.751 60.648 144.919 60.328C144.087 60.008 143.34 59.6133 142.679 59.144C142.402 58.952 142.199 58.7173 142.071 58.44C141.964 58.1627 141.932 57.896 141.975 57.64C142.039 57.3627 142.156 57.128 142.327 56.936C142.519 56.744 142.743 56.6267 142.999 56.584C143.255 56.5413 143.532 56.6267 143.831 56.84C144.812 57.5013 145.836 57.9813 146.903 58.28C147.991 58.5787 149.186 58.728 150.487 58.728C152.364 58.728 153.74 58.3867 154.615 57.704C155.511 57.0213 155.959 56.1253 155.959 55.016C155.959 54.0987 155.639 53.384 154.999 52.872C154.359 52.3387 153.282 51.9227 151.767 51.624L148.375 50.92C146.37 50.4933 144.866 49.7893 143.863 48.808C142.882 47.8267 142.391 46.5147 142.391 44.872C142.391 43.8693 142.594 42.9627 142.999 42.152C143.404 41.32 143.98 40.6053 144.727 40.008C145.474 39.4107 146.348 38.952 147.351 38.632C148.375 38.312 149.506 38.152 150.743 38.152C152.066 38.152 153.303 38.3333 154.455 38.696C155.628 39.0587 156.684 39.592 157.623 40.296C157.879 40.488 158.05 40.7227 158.135 41C158.22 41.256 158.231 41.512 158.167 41.768C158.124 42.024 158.007 42.2373 157.815 42.408C157.644 42.5787 157.42 42.6747 157.143 42.696C156.887 42.7173 156.599 42.6213 156.279 42.408C155.426 41.8107 154.551 41.384 153.655 41.128C152.759 40.8507 151.778 40.712 150.711 40.712C149.623 40.712 148.674 40.8827 147.863 41.224C147.074 41.5653 146.455 42.0453 146.007 42.664C145.58 43.2613 145.367 43.9653 145.367 44.776C145.367 45.7573 145.666 46.5253 146.263 47.08C146.86 47.6347 147.863 48.0613 149.271 48.36L152.631 49.032C154.764 49.48 156.343 50.1733 157.367 51.112C158.412 52.0293 158.935 53.2667 158.935 54.824C158.935 55.8053 158.732 56.6907 158.327 57.48C157.943 58.2693 157.388 58.952 156.663 59.528C155.938 60.0827 155.052 60.52 154.007 60.84C152.962 61.1387 151.788 61.288 150.487 61.288ZM168.863 61.288C167.604 61.288 166.548 61.064 165.695 60.616C164.863 60.168 164.233 59.5173 163.807 58.664C163.401 57.8107 163.199 56.7653 163.199 55.528V47.656H161.151C160.767 47.656 160.468 47.56 160.255 47.368C160.041 47.1547 159.934 46.8773 159.934 46.536C159.934 46.1733 160.041 45.896 160.255 45.704C160.468 45.512 160.767 45.416 161.151 45.416H163.199V41.928C163.199 41.4373 163.327 41.0747 163.583 40.84C163.839 40.584 164.201 40.456 164.671 40.456C165.14 40.456 165.492 40.584 165.727 40.84C165.983 41.0747 166.111 41.4373 166.111 41.928V45.416H169.983C170.388 45.416 170.697 45.512 170.911 45.704C171.124 45.896 171.231 46.1733 171.231 46.536C171.231 46.8773 171.124 47.1547 170.911 47.368C170.697 47.56 170.388 47.656 169.983 47.656H166.111V55.272C166.111 56.4453 166.356 57.3307 166.847 57.928C167.337 58.5253 168.148 58.824 169.279 58.824C169.684 58.824 170.025 58.792 170.303 58.728C170.58 58.6427 170.825 58.6 171.039 58.6C171.231 58.5787 171.391 58.6427 171.519 58.792C171.668 58.9413 171.743 59.2187 171.743 59.624C171.743 59.9227 171.689 60.2 171.583 60.456C171.497 60.6907 171.316 60.8507 171.039 60.936C170.783 61.0213 170.441 61.096 170.015 61.16C169.588 61.2453 169.204 61.288 168.863 61.288ZM180.335 61.288C178.799 61.288 177.466 60.9573 176.335 60.296C175.204 59.6347 174.33 58.696 173.711 57.48C173.092 56.264 172.783 54.8347 172.783 53.192C172.783 51.9547 172.954 50.8453 173.295 49.864C173.658 48.8613 174.17 48.008 174.831 47.304C175.492 46.6 176.282 46.0667 177.199 45.704C178.138 45.32 179.183 45.128 180.335 45.128C181.871 45.128 183.204 45.4587 184.335 46.12C185.466 46.7813 186.34 47.72 186.959 48.936C187.578 50.1307 187.887 51.5493 187.887 53.192C187.887 54.4293 187.706 55.5493 187.343 56.552C187.002 57.5547 186.5 58.408 185.839 59.112C185.178 59.816 184.378 60.36 183.439 60.744C182.522 61.1067 181.487 61.288 180.335 61.288ZM180.335 58.984C181.274 58.984 182.084 58.76 182.767 58.312C183.471 57.864 184.004 57.2133 184.367 56.36C184.751 55.5067 184.943 54.4507 184.943 53.192C184.943 51.3147 184.527 49.8853 183.695 48.904C182.863 47.9227 181.743 47.432 180.335 47.432C179.418 47.432 178.607 47.656 177.903 48.104C177.22 48.5307 176.687 49.1707 176.303 50.024C175.919 50.8773 175.727 51.9333 175.727 53.192C175.727 55.0693 176.143 56.5093 176.975 57.512C177.828 58.4933 178.948 58.984 180.335 58.984ZM193.121 61.224C192.631 61.224 192.257 61.096 192.001 60.84C191.745 60.584 191.617 60.2107 191.617 59.72V46.664C191.617 46.1733 191.745 45.8107 192.001 45.576C192.257 45.32 192.609 45.192 193.057 45.192C193.505 45.192 193.847 45.32 194.081 45.576C194.337 45.8107 194.465 46.1733 194.465 46.664V49.128H194.145C194.487 47.848 195.127 46.8773 196.065 46.216C197.004 45.5547 198.188 45.1813 199.617 45.096C199.959 45.0747 200.236 45.16 200.449 45.352C200.663 45.5227 200.78 45.8213 200.801 46.248C200.823 46.6533 200.727 46.984 200.513 47.24C200.3 47.4747 199.969 47.6133 199.521 47.656L198.945 47.688C197.537 47.8373 196.449 48.296 195.681 49.064C194.935 49.832 194.561 50.888 194.561 52.232V59.72C194.561 60.2107 194.433 60.584 194.177 60.84C193.943 61.096 193.591 61.224 193.121 61.224ZM210.286 61.288C208.601 61.288 207.15 60.968 205.934 60.328C204.739 59.6667 203.811 58.7387 203.15 57.544C202.489 56.328 202.158 54.8987 202.158 53.256C202.158 51.6347 202.478 50.216 203.118 49C203.779 47.784 204.675 46.8347 205.806 46.152C206.958 45.4693 208.27 45.128 209.742 45.128C210.787 45.128 211.726 45.3093 212.558 45.672C213.411 46.0133 214.137 46.5147 214.734 47.176C215.331 47.8373 215.779 48.648 216.078 49.608C216.398 50.5467 216.558 51.6133 216.558 52.808C216.558 53.1493 216.451 53.416 216.238 53.608C216.046 53.7787 215.758 53.864 215.374 53.864H204.43V52.008H214.638L214.094 52.456C214.094 51.3467 213.923 50.408 213.582 49.64C213.262 48.8507 212.782 48.2533 212.142 47.848C211.523 47.4427 210.745 47.24 209.806 47.24C208.782 47.24 207.907 47.4853 207.182 47.976C206.457 48.4453 205.902 49.1173 205.518 49.992C205.134 50.8453 204.942 51.8373 204.942 52.968V53.16C204.942 55.08 205.401 56.5307 206.318 57.512C207.235 58.4933 208.558 58.984 210.286 58.984C210.969 58.984 211.662 58.8987 212.366 58.728C213.091 58.5573 213.785 58.248 214.446 57.8C214.766 57.608 215.054 57.5227 215.31 57.544C215.587 57.544 215.811 57.6293 215.982 57.8C216.153 57.9493 216.259 58.1413 216.302 58.376C216.345 58.5893 216.313 58.824 216.206 59.08C216.099 59.336 215.897 59.56 215.598 59.752C214.894 60.2427 214.051 60.6267 213.07 60.904C212.11 61.16 211.182 61.288 210.286 61.288Z" fill="black"/>
</svg>
