<svg width="300" height="80" viewBox="0 0 300 80" fill="none" xmlns="http://www.w3.org/2000/svg">
<rect width="300" height="80" rx="15" fill="white"/>
<path d="M93.56 59.35C90.83 59.35 88.52 58.8367 86.63 57.81C84.7633 56.7833 83.34 55.325 82.36 53.435C81.38 51.545 80.89 49.305 80.89 46.715C80.89 44.755 81.17 42.9933 81.73 41.43C82.3133 39.8667 83.1417 38.5367 84.215 37.44C85.3117 36.32 86.6417 35.4683 88.205 34.885C89.7683 34.2783 91.5417 33.975 93.525 33.975C94.8317 33.975 96.1383 34.1383 97.445 34.465C98.775 34.7683 100.023 35.2933 101.19 36.04C101.587 36.2967 101.843 36.6117 101.96 36.985C102.1 37.3583 102.123 37.7433 102.03 38.14C101.937 38.5133 101.762 38.84 101.505 39.12C101.248 39.4 100.922 39.575 100.525 39.645C100.152 39.715 99.7317 39.6217 99.265 39.365C98.3783 38.8517 97.48 38.4783 96.57 38.245C95.66 38.0117 94.645 37.895 93.525 37.895C91.7983 37.895 90.34 38.245 89.15 38.945C87.96 39.6217 87.0617 40.6133 86.455 41.92C85.8717 43.2267 85.58 44.825 85.58 46.715C85.58 49.585 86.2683 51.7667 87.645 53.26C89.0217 54.7533 91.0633 55.5 93.77 55.5C94.7033 55.5 95.6483 55.4067 96.605 55.22C97.5617 55.0333 98.495 54.7767 99.405 54.45L98.53 56.445V48.99H94.68C94.0967 48.99 93.6417 48.8383 93.315 48.535C93.0117 48.2317 92.86 47.8233 92.86 47.31C92.86 46.7733 93.0117 46.365 93.315 46.085C93.6417 45.805 94.0967 45.665 94.68 45.665H100.455C101.038 45.665 101.482 45.8283 101.785 46.155C102.112 46.4583 102.275 46.9017 102.275 47.485V55.99C102.275 56.5033 102.17 56.935 101.96 57.285C101.773 57.635 101.458 57.8917 101.015 58.055C99.9883 58.4283 98.81 58.7433 97.48 59C96.15 59.2333 94.8433 59.35 93.56 59.35ZM114.851 59.35C113.078 59.35 111.538 58.9883 110.231 58.265C108.925 57.5417 107.91 56.515 107.186 55.185C106.463 53.8317 106.101 52.245 106.101 50.425C106.101 49.0483 106.3 47.8233 106.696 46.75C107.116 45.6533 107.711 44.72 108.481 43.95C109.251 43.1567 110.173 42.5617 111.246 42.165C112.32 41.745 113.521 41.535 114.851 41.535C116.625 41.535 118.165 41.8967 119.471 42.62C120.778 43.3433 121.793 44.37 122.516 45.7C123.24 47.03 123.601 48.605 123.601 50.425C123.601 51.8017 123.391 53.0383 122.971 54.135C122.575 55.2317 121.991 56.1767 121.221 56.97C120.451 57.74 119.53 58.335 118.456 58.755C117.383 59.1517 116.181 59.35 114.851 59.35ZM114.851 56.025C115.715 56.025 116.473 55.815 117.126 55.395C117.78 54.975 118.281 54.3567 118.631 53.54C119.005 52.7 119.191 51.6617 119.191 50.425C119.191 48.5583 118.795 47.17 118.001 46.26C117.208 45.3267 116.158 44.86 114.851 44.86C113.988 44.86 113.23 45.07 112.576 45.49C111.923 45.8867 111.41 46.505 111.036 47.345C110.686 48.1617 110.511 49.1883 110.511 50.425C110.511 52.2683 110.908 53.6683 111.701 54.625C112.495 55.5583 113.545 56.025 114.851 56.025ZM135.018 59.35C133.244 59.35 131.704 58.9883 130.398 58.265C129.091 57.5417 128.076 56.515 127.353 55.185C126.629 53.8317 126.268 52.245 126.268 50.425C126.268 49.0483 126.466 47.8233 126.863 46.75C127.283 45.6533 127.878 44.72 128.648 43.95C129.418 43.1567 130.339 42.5617 131.413 42.165C132.486 41.745 133.688 41.535 135.018 41.535C136.791 41.535 138.331 41.8967 139.638 42.62C140.944 43.3433 141.959 44.37 142.683 45.7C143.406 47.03 143.768 48.605 143.768 50.425C143.768 51.8017 143.558 53.0383 143.138 54.135C142.741 55.2317 142.158 56.1767 141.388 56.97C140.618 57.74 139.696 58.335 138.623 58.755C137.549 59.1517 136.348 59.35 135.018 59.35ZM135.018 56.025C135.881 56.025 136.639 55.815 137.293 55.395C137.946 54.975 138.448 54.3567 138.798 53.54C139.171 52.7 139.358 51.6617 139.358 50.425C139.358 48.5583 138.961 47.17 138.168 46.26C137.374 45.3267 136.324 44.86 135.018 44.86C134.154 44.86 133.396 45.07 132.743 45.49C132.089 45.8867 131.576 46.505 131.203 47.345C130.853 48.1617 130.678 49.1883 130.678 50.425C130.678 52.2683 131.074 53.6683 131.868 54.625C132.661 55.5583 133.711 56.025 135.018 56.025ZM155.359 65.65C154.099 65.65 152.874 65.5333 151.684 65.3C150.517 65.0667 149.455 64.705 148.499 64.215C148.055 63.9817 147.752 63.7017 147.589 63.375C147.449 63.0483 147.402 62.71 147.449 62.36C147.519 62.0333 147.659 61.7417 147.869 61.485C148.102 61.2283 148.382 61.0533 148.709 60.96C149.035 60.8667 149.374 60.9133 149.724 61.1C150.75 61.6133 151.719 61.94 152.629 62.08C153.562 62.2433 154.355 62.325 155.009 62.325C156.572 62.325 157.739 61.94 158.509 61.17C159.302 60.4233 159.699 59.3033 159.699 57.81V54.66H160.014C159.664 55.85 158.929 56.8067 157.809 57.53C156.712 58.23 155.464 58.58 154.064 58.58C152.524 58.58 151.182 58.23 150.039 57.53C148.895 56.8067 148.009 55.8033 147.379 54.52C146.749 53.2367 146.434 51.7433 146.434 50.04C146.434 48.7567 146.609 47.6017 146.959 46.575C147.332 45.525 147.845 44.6267 148.499 43.88C149.175 43.1333 149.98 42.5617 150.914 42.165C151.87 41.745 152.92 41.535 154.064 41.535C155.51 41.535 156.77 41.8967 157.844 42.62C158.94 43.32 159.652 44.2533 159.979 45.42L159.629 46.295V43.81C159.629 43.0867 159.815 42.5383 160.189 42.165C160.585 41.7917 161.122 41.605 161.799 41.605C162.499 41.605 163.035 41.7917 163.409 42.165C163.782 42.5383 163.969 43.0867 163.969 43.81V57.285C163.969 60.0617 163.234 62.15 161.764 63.55C160.294 64.95 158.159 65.65 155.359 65.65ZM155.254 55.255C156.164 55.255 156.945 55.045 157.599 54.625C158.252 54.205 158.754 53.61 159.104 52.84C159.477 52.0467 159.664 51.1133 159.664 50.04C159.664 48.43 159.267 47.17 158.474 46.26C157.68 45.3267 156.607 44.86 155.254 44.86C154.344 44.86 153.562 45.07 152.909 45.49C152.255 45.91 151.742 46.505 151.369 47.275C151.019 48.045 150.844 48.9667 150.844 50.04C150.844 51.65 151.24 52.9217 152.034 53.855C152.827 54.7883 153.9 55.255 155.254 55.255ZM174.347 59.35C172.41 59.35 170.952 58.8017 169.972 57.705C168.992 56.585 168.502 54.9517 168.502 52.805V36.25C168.502 35.5267 168.688 34.9783 169.062 34.605C169.435 34.2317 169.972 34.045 170.672 34.045C171.372 34.045 171.908 34.2317 172.282 34.605C172.678 34.9783 172.877 35.5267 172.877 36.25V52.595C172.877 53.6683 173.098 54.4617 173.542 54.975C174.008 55.4883 174.662 55.745 175.502 55.745C175.688 55.745 175.863 55.745 176.027 55.745C176.19 55.7217 176.353 55.6983 176.517 55.675C176.843 55.6283 177.065 55.7217 177.182 55.955C177.298 56.165 177.357 56.6083 177.357 57.285C177.357 57.8683 177.24 58.3233 177.007 58.65C176.773 58.9767 176.388 59.175 175.852 59.245C175.618 59.2683 175.373 59.2917 175.117 59.315C174.86 59.3383 174.603 59.35 174.347 59.35ZM187.942 59.35C186.006 59.35 184.337 58.9883 182.937 58.265C181.537 57.5417 180.452 56.515 179.682 55.185C178.936 53.855 178.562 52.28 178.562 50.46C178.562 48.6867 178.924 47.135 179.647 45.805C180.394 44.475 181.409 43.4367 182.692 42.69C183.999 41.92 185.481 41.535 187.137 41.535C188.351 41.535 189.436 41.7333 190.392 42.13C191.372 42.5267 192.201 43.0983 192.877 43.845C193.577 44.5917 194.102 45.5017 194.452 46.575C194.826 47.625 195.012 48.815 195.012 50.145C195.012 50.565 194.861 50.8917 194.557 51.125C194.277 51.335 193.869 51.44 193.332 51.44H182.097V48.92H191.932L191.372 49.445C191.372 48.3717 191.209 47.4733 190.882 46.75C190.579 46.0267 190.124 45.4783 189.517 45.105C188.934 44.7083 188.199 44.51 187.312 44.51C186.332 44.51 185.492 44.7433 184.792 45.21C184.116 45.6533 183.591 46.295 183.217 47.135C182.867 47.9517 182.692 48.9317 182.692 50.075V50.32C182.692 52.2333 183.136 53.6683 184.022 54.625C184.932 55.5583 186.262 56.025 188.012 56.025C188.619 56.025 189.296 55.955 190.042 55.815C190.812 55.6517 191.536 55.3833 192.212 55.01C192.702 54.73 193.134 54.6133 193.507 54.66C193.881 54.6833 194.172 54.8117 194.382 55.045C194.616 55.2783 194.756 55.57 194.802 55.92C194.849 56.2467 194.779 56.585 194.592 56.935C194.429 57.285 194.137 57.5883 193.717 57.845C192.901 58.3583 191.956 58.7433 190.882 59C189.832 59.2333 188.852 59.35 187.942 59.35ZM210.639 59.28C209.916 59.28 209.356 59.0817 208.959 58.685C208.586 58.265 208.399 57.6933 208.399 56.97V36.6C208.399 35.8533 208.597 35.2933 208.994 34.92C209.391 34.5233 209.951 34.325 210.674 34.325H219.109C221.816 34.325 223.904 35.0017 225.374 36.355C226.844 37.7083 227.579 39.5983 227.579 42.025C227.579 44.4517 226.844 46.3533 225.374 47.73C223.904 49.0833 221.816 49.76 219.109 49.76H212.879V56.97C212.879 57.6933 212.692 58.265 212.319 58.685C211.946 59.0817 211.386 59.28 210.639 59.28ZM212.879 46.225H218.409C219.996 46.225 221.197 45.875 222.014 45.175C222.831 44.4517 223.239 43.4017 223.239 42.025C223.239 40.6483 222.831 39.61 222.014 38.91C221.197 38.21 219.996 37.86 218.409 37.86H212.879V46.225ZM236.656 59.35C234.719 59.35 233.261 58.8017 232.281 57.705C231.301 56.585 230.811 54.9517 230.811 52.805V36.25C230.811 35.5267 230.998 34.9783 231.371 34.605C231.744 34.2317 232.281 34.045 232.981 34.045C233.681 34.045 234.218 34.2317 234.591 34.605C234.988 34.9783 235.186 35.5267 235.186 36.25V52.595C235.186 53.6683 235.408 54.4617 235.851 54.975C236.318 55.4883 236.971 55.745 237.811 55.745C237.998 55.745 238.173 55.745 238.336 55.745C238.499 55.7217 238.663 55.6983 238.826 55.675C239.153 55.6283 239.374 55.7217 239.491 55.955C239.608 56.165 239.666 56.6083 239.666 57.285C239.666 57.8683 239.549 58.3233 239.316 58.65C239.083 58.9767 238.698 59.175 238.161 59.245C237.928 59.2683 237.683 59.2917 237.426 59.315C237.169 59.3383 236.913 59.35 236.656 59.35ZM247.623 59.35C246.386 59.35 245.278 59.1167 244.298 58.65C243.341 58.16 242.583 57.5067 242.023 56.69C241.486 55.8733 241.218 54.9517 241.218 53.925C241.218 52.665 241.545 51.6733 242.198 50.95C242.851 50.2033 243.913 49.6667 245.383 49.34C246.853 49.0133 248.825 48.85 251.298 48.85H253.048V51.37H251.333C249.886 51.37 248.731 51.44 247.868 51.58C247.005 51.72 246.386 51.965 246.013 52.315C245.663 52.6417 245.488 53.1083 245.488 53.715C245.488 54.485 245.756 55.115 246.293 55.605C246.83 56.095 247.576 56.34 248.533 56.34C249.303 56.34 249.98 56.165 250.563 55.815C251.17 55.4417 251.648 54.94 251.998 54.31C252.348 53.68 252.523 52.9567 252.523 52.14V48.115C252.523 46.9483 252.266 46.1083 251.753 45.595C251.24 45.0817 250.376 44.825 249.163 44.825C248.486 44.825 247.751 44.9067 246.958 45.07C246.188 45.2333 245.371 45.5133 244.508 45.91C244.065 46.12 243.668 46.1783 243.318 46.085C242.991 45.9917 242.735 45.805 242.548 45.525C242.361 45.2217 242.268 44.895 242.268 44.545C242.268 44.195 242.361 43.8567 242.548 43.53C242.735 43.18 243.05 42.9233 243.493 42.76C244.566 42.3167 245.593 42.0017 246.573 41.815C247.576 41.6283 248.486 41.535 249.303 41.535C250.983 41.535 252.36 41.7917 253.433 42.305C254.53 42.8183 255.346 43.6 255.883 44.65C256.42 45.6767 256.688 47.0067 256.688 48.64V57.04C256.688 57.7633 256.513 58.3233 256.163 58.72C255.813 59.0933 255.311 59.28 254.658 59.28C254.005 59.28 253.491 59.0933 253.118 58.72C252.768 58.3233 252.593 57.7633 252.593 57.04V55.36H252.873C252.71 56.1767 252.383 56.8883 251.893 57.495C251.426 58.0783 250.831 58.5333 250.108 58.86C249.385 59.1867 248.556 59.35 247.623 59.35ZM265.298 65.58C264.784 65.58 264.364 65.44 264.038 65.16C263.711 64.9033 263.513 64.5533 263.443 64.11C263.396 63.6667 263.478 63.2 263.688 62.71L266.068 57.425V59.245L259.698 44.51C259.488 43.9967 259.418 43.5183 259.488 43.075C259.558 42.6317 259.768 42.2817 260.118 42.025C260.491 41.745 260.993 41.605 261.623 41.605C262.159 41.605 262.591 41.7333 262.918 41.99C263.244 42.2233 263.536 42.6783 263.793 43.355L268.518 55.15H267.468L272.298 43.32C272.554 42.6667 272.858 42.2233 273.208 41.99C273.558 41.7333 274.024 41.605 274.608 41.605C275.121 41.605 275.529 41.745 275.833 42.025C276.136 42.2817 276.323 42.6317 276.393 43.075C276.463 43.495 276.381 43.9617 276.148 44.475L267.643 63.9C267.339 64.5533 267.013 64.9967 266.663 65.23C266.313 65.4633 265.858 65.58 265.298 65.58Z" fill="black"/>
<path d="M87.2 28.18C85.6933 28.18 84.4133 27.8933 83.36 27.32C82.32 26.7333 81.5267 25.9 80.98 24.82C80.4467 23.74 80.18 22.4533 80.18 20.96C80.18 19.84 80.3333 18.84 80.64 17.96C80.9467 17.0667 81.3933 16.3067 81.98 15.68C82.58 15.04 83.3 14.5533 84.14 14.22C84.9933 13.8867 85.9533 13.72 87.02 13.72C87.8467 13.72 88.6467 13.8333 89.42 14.06C90.1933 14.2733 90.9 14.6267 91.54 15.12C91.7 15.24 91.8 15.38 91.84 15.54C91.8933 15.7 91.9 15.86 91.86 16.02C91.82 16.18 91.74 16.32 91.62 16.44C91.5133 16.56 91.3733 16.6333 91.2 16.66C91.04 16.6733 90.8667 16.62 90.68 16.5C90.1333 16.1 89.56 15.8133 88.96 15.64C88.3733 15.4667 87.7267 15.38 87.02 15.38C85.9667 15.38 85.0733 15.6 84.34 16.04C83.6067 16.4667 83.0533 17.1 82.68 17.94C82.32 18.7667 82.14 19.7733 82.14 20.96C82.14 22.7867 82.5667 24.1733 83.42 25.12C84.2867 26.0667 85.5667 26.54 87.26 26.54C87.8867 26.54 88.4933 26.48 89.08 26.36C89.68 26.24 90.2533 26.0733 90.8 25.86L90.4 26.86V22.04H87.68C87.44 22.04 87.2467 21.9733 87.1 21.84C86.9667 21.7067 86.9 21.5267 86.9 21.3C86.9 21.0733 86.9667 20.9 87.1 20.78C87.2467 20.66 87.44 20.6 87.68 20.6H91.22C91.46 20.6 91.6467 20.6667 91.78 20.8C91.9267 20.9333 92 21.1267 92 21.38V26.52C92 26.7333 91.96 26.92 91.88 27.08C91.8 27.2267 91.6667 27.3333 91.48 27.4C90.92 27.6267 90.2533 27.8133 89.48 27.96C88.7067 28.1067 87.9467 28.18 87.2 28.18ZM96.2898 28C95.9698 28 95.7232 27.9133 95.5498 27.74C95.3765 27.5667 95.2898 27.32 95.2898 27V14.9C95.2898 14.58 95.3765 14.3333 95.5498 14.16C95.7232 13.9867 95.9698 13.9 96.2898 13.9H103.65C103.903 13.9 104.097 13.9667 104.23 14.1C104.377 14.22 104.45 14.4 104.45 14.64C104.45 14.8933 104.377 15.0867 104.23 15.22C104.097 15.3533 103.903 15.42 103.65 15.42H97.0898V20.08H103.23C103.483 20.08 103.677 20.1467 103.81 20.28C103.943 20.4133 104.01 20.6 104.01 20.84C104.01 21.0933 103.943 21.2867 103.81 21.42C103.677 21.54 103.483 21.6 103.23 21.6H97.0898V26.48H103.65C103.903 26.48 104.097 26.5467 104.23 26.68C104.377 26.8 104.45 26.9867 104.45 27.24C104.45 27.4933 104.377 27.6867 104.23 27.82C104.097 27.94 103.903 28 103.65 28H96.2898ZM111.174 28.14C110.867 28.14 110.634 28.06 110.474 27.9C110.314 27.7267 110.234 27.4867 110.234 27.18V15.48H105.854C105.6 15.48 105.4 15.4133 105.254 15.28C105.107 15.1333 105.034 14.9333 105.034 14.68C105.034 14.4267 105.107 14.2333 105.254 14.1C105.4 13.9667 105.6 13.9 105.854 13.9H116.474C116.74 13.9 116.94 13.9667 117.074 14.1C117.22 14.2333 117.294 14.4267 117.294 14.68C117.294 14.9333 117.22 15.1333 117.074 15.28C116.94 15.4133 116.74 15.48 116.474 15.48H112.094V27.18C112.094 27.4867 112.014 27.7267 111.854 27.9C111.707 28.06 111.48 28.14 111.174 28.14ZM125.077 28.14C124.784 28.14 124.557 28.06 124.397 27.9C124.237 27.7267 124.157 27.4867 124.157 27.18V14.72C124.157 14.4 124.237 14.16 124.397 14C124.557 13.84 124.784 13.76 125.077 13.76C125.384 13.76 125.617 13.84 125.777 14C125.937 14.16 126.017 14.4 126.017 14.72V27.18C126.017 27.4867 125.937 27.7267 125.777 27.9C125.63 28.06 125.397 28.14 125.077 28.14ZM133.771 28.14C133.465 28.14 133.231 28.06 133.071 27.9C132.911 27.7267 132.831 27.4867 132.831 27.18V15.48H128.451C128.198 15.48 127.998 15.4133 127.851 15.28C127.705 15.1333 127.631 14.9333 127.631 14.68C127.631 14.4267 127.705 14.2333 127.851 14.1C127.998 13.9667 128.198 13.9 128.451 13.9H139.071C139.338 13.9 139.538 13.9667 139.671 14.1C139.818 14.2333 139.891 14.4267 139.891 14.68C139.891 14.9333 139.818 15.1333 139.671 15.28C139.538 15.4133 139.338 15.48 139.071 15.48H134.691V27.18C134.691 27.4867 134.611 27.7267 134.451 27.9C134.305 28.06 134.078 28.14 133.771 28.14ZM152.775 28.18C151.441 28.18 150.288 27.8867 149.315 27.3C148.341 26.7 147.581 25.86 147.035 24.78C146.501 23.6867 146.235 22.4067 146.235 20.94C146.235 19.8333 146.388 18.84 146.695 17.96C147.001 17.0667 147.435 16.3067 147.995 15.68C148.568 15.04 149.255 14.5533 150.055 14.22C150.868 13.8867 151.775 13.72 152.775 13.72C154.108 13.72 155.261 14.0133 156.235 14.6C157.208 15.1867 157.961 16.02 158.495 17.1C159.028 18.18 159.295 19.4533 159.295 20.92C159.295 22.0267 159.141 23.0267 158.835 23.92C158.528 24.8133 158.088 25.58 157.515 26.22C156.955 26.86 156.275 27.3467 155.475 27.68C154.675 28.0133 153.775 28.18 152.775 28.18ZM152.775 26.54C153.735 26.54 154.555 26.32 155.235 25.88C155.915 25.44 156.435 24.8 156.795 23.96C157.168 23.12 157.355 22.1133 157.355 20.94C157.355 19.1667 156.955 17.7933 156.155 16.82C155.368 15.8467 154.241 15.36 152.775 15.36C151.815 15.36 150.988 15.58 150.295 16.02C149.615 16.4467 149.095 17.08 148.735 17.92C148.375 18.7467 148.195 19.7533 148.195 20.94C148.195 22.7 148.595 24.0733 149.395 25.06C150.195 26.0467 151.321 26.54 152.775 26.54ZM163.044 28.14C162.778 28.14 162.564 28.06 162.404 27.9C162.258 27.74 162.184 27.52 162.184 27.24V14.7C162.184 14.3933 162.258 14.16 162.404 14C162.551 13.84 162.744 13.76 162.984 13.76C163.211 13.76 163.384 13.8 163.504 13.88C163.624 13.96 163.758 14.1 163.904 14.3L172.384 25.54H171.884V14.66C171.884 14.3667 171.958 14.1467 172.104 14C172.264 13.84 172.484 13.76 172.764 13.76C173.044 13.76 173.258 13.84 173.404 14C173.551 14.1467 173.624 14.3667 173.624 14.66V27.24C173.624 27.52 173.551 27.74 173.404 27.9C173.271 28.06 173.091 28.14 172.864 28.14C172.651 28.14 172.471 28.0933 172.324 28C172.191 27.92 172.051 27.78 171.904 27.58L163.444 16.34H163.904V27.24C163.904 27.52 163.831 27.74 163.684 27.9C163.538 28.06 163.324 28.14 163.044 28.14Z" fill="black"/>
<g clip-path="url(#clip0_175_294)">
<path d="M50.9321 29.6294L25.5699 15.1338C25.2512 14.9487 24.8503 14.959 24.5419 15.144C24.2232 15.3291 24.0278 15.6581 24.0278 16.0282C24.0278 16.0282 24.0381 17.3646 24.0484 19.5647L42.5226 38.0389L50.9321 29.6294Z" fill="url(#paint0_linear_175_294)"/>
<path d="M24.0483 19.5645C24.0792 27.5011 24.1717 46.7669 24.2128 56.3586L42.5328 38.0386L24.0483 19.5645Z" fill="url(#paint1_linear_175_294)"/>
<path d="M65.4482 37.9256L50.932 29.6292L42.5122 38.0387L52.0115 47.5379L65.4584 39.7041C65.7771 39.5191 65.9725 39.1798 65.9725 38.82C65.9725 38.4499 65.7669 38.1106 65.4482 37.9256Z" fill="url(#paint2_linear_175_294)"/>
<path d="M24.2026 56.3588C24.2232 59.7822 24.2335 61.972 24.2335 61.972C24.2335 62.3421 24.4288 62.6813 24.7475 62.8561C25.0662 63.0411 25.4569 63.0411 25.7756 62.8561L52.0219 47.5483L42.5226 38.0491L24.2026 56.3588Z" fill="url(#paint3_linear_175_294)"/>
</g>
<defs>
<linearGradient id="paint0_linear_175_294" x1="24.0278" y1="26.524" x2="50.9368" y2="26.524" gradientUnits="userSpaceOnUse">
<stop stop-color="#63BE6B"/>
<stop offset="0.506" stop-color="#5BBC6A"/>
<stop offset="1" stop-color="#4AB96A"/>
</linearGradient>
<linearGradient id="paint1_linear_175_294" x1="24.0434" y1="37.966" x2="42.5221" y2="37.966" gradientUnits="userSpaceOnUse">
<stop stop-color="#3EC6F2"/>
<stop offset="1" stop-color="#45AFE3"/>
</linearGradient>
<linearGradient id="paint2_linear_175_294" x1="42.5221" y1="38.5901" x2="65.97" y2="38.5901" gradientUnits="userSpaceOnUse">
<stop stop-color="#FAA51A"/>
<stop offset="0.387" stop-color="#FAB716"/>
<stop offset="0.741" stop-color="#FAC412"/>
<stop offset="1" stop-color="#FAC80F"/>
</linearGradient>
<linearGradient id="paint3_linear_175_294" x1="24.2072" y1="50.5216" x2="52.0215" y2="50.5216" gradientUnits="userSpaceOnUse">
<stop stop-color="#EC3B50"/>
<stop offset="1" stop-color="#E7515B"/>
</linearGradient>
<clipPath id="clip0_175_294">
<rect width="48" height="48" fill="white" transform="translate(21 15)"/>
</clipPath>
</defs>
</svg>
